# xmcd CD database file
#
# Track frame offsets:
#	300
#	17707
#	32702
#	60440
#	76896
#	92255
#	107719
#	124731
#	145574
#	168407
#
# Disc length: 2590 seconds
#
# Revision: 0
# Processed by: cddbd v1.5.2PL0 Copyright (c) Steve Scherf et al.
# Submitted via: CDex 1.51
#
DISCID=700a1a0a
DTITLE=mjblues - sing your song
DYEAR=2006
DGENRE=Blues
TTITLE0=Run Away Blues
TTITLE1=Do You Wanna
TTITLE2=Long way From Home
TTITLE3=London Town
TTITLE4=Just For You
TTITLE5=Courage
TTITLE6=Wrong Or Right
TTITLE7=Wonderful World
TTITLE8=Jojo
TTITLE9=Sing Your Song
EXTD=YEAR: 2006
EXTT0=
EXTT1=
EXTT2=
EXTT3=
EXTT4=
EXTT5=
EXTT6=
EXTT7=
EXTT8=
EXTT9=
PLAYORDER=
